<svg width="130" height="33" viewBox="0 0 130 33" fill="none" xmlns="http://www.w3.org/2000/svg">
<path d="M11.5473 19.2044L0.242065 25.1259L1.6021 27.4444L12.9073 21.5229L11.5473 19.2044Z" fill="#2B2965"/>
<path d="M8.15024 32.0288H6.34003V25.9964L8.15024 25.1058V32.0288Z" fill="#2B2965"/>
<path d="M21.1215 19.1592L9.81586 25.0809L11.1761 27.3998L22.4818 21.4781L21.1215 19.1592Z" fill="#2B2965"/>
<path d="M17.6833 32.0288H15.8731V25.9964L17.6833 25.1058V32.0288Z" fill="#2B2965"/>
<path d="M30.6134 19.2056L19.3082 25.127L20.6682 27.4455L31.9734 21.524L30.6134 19.2056Z" fill="#2B2965"/>
<path d="M27.2217 32.0288H25.4061V25.9964L27.2217 25.1058V32.0288Z" fill="#2B2965"/>
<path d="M32 30.5005H0.266724V32H32V30.5005Z" fill="#404040"/>
<path d="M8.16634 2.44894C8.09532 2.44894 8.02716 2.42226 7.97695 2.37481C7.92673 2.32736 7.89856 2.26301 7.89856 2.19591V0.253036C7.89856 0.185927 7.92673 0.121585 7.97695 0.0741317C8.02716 0.0266782 8.09532 0 8.16634 0C8.23736 0 8.30545 0.0266782 8.35567 0.0741317C8.40589 0.121585 8.43412 0.185927 8.43412 0.253036V2.19591C8.43412 2.26301 8.40589 2.32736 8.35567 2.37481C8.30545 2.42226 8.23736 2.44894 8.16634 2.44894Z" fill="#FFCA1C"/>
<path d="M2.32329 7.97015H0.267782C0.196762 7.97015 0.128671 7.94348 0.0784518 7.89602C0.0282329 7.84857 0 7.78423 0 7.71712C0 7.65001 0.0282329 7.58567 0.0784518 7.53821C0.128671 7.49076 0.196762 7.46408 0.267782 7.46408H2.32329C2.39431 7.46408 2.4624 7.49076 2.51262 7.53821C2.56283 7.58567 2.59107 7.65001 2.59107 7.71712C2.59107 7.78423 2.56283 7.84857 2.51262 7.89602C2.4624 7.94348 2.39431 7.97015 2.32329 7.97015Z" fill="#FFCA1C"/>
<path d="M8.16634 15.4347C8.09532 15.4347 8.02716 15.408 7.97695 15.3606C7.92673 15.3131 7.89856 15.2488 7.89856 15.1817V13.2388C7.89856 13.1717 7.92673 13.1073 7.97695 13.0599C8.02716 13.0124 8.09532 12.9857 8.16634 12.9857C8.23736 12.9857 8.30545 13.0124 8.35567 13.0599C8.40589 13.1073 8.43412 13.1717 8.43412 13.2388V15.1817C8.43412 15.2488 8.40589 15.3131 8.35567 15.3606C8.30545 15.408 8.23736 15.4347 8.16634 15.4347Z" fill="#FFCA1C"/>
<path d="M16.0659 7.97015H14.0093C13.9383 7.97015 13.8702 7.94348 13.82 7.89602C13.7697 7.84857 13.7415 7.78423 13.7415 7.71712C13.7415 7.65001 13.7697 7.58567 13.82 7.53821C13.8702 7.49076 13.9383 7.46408 14.0093 7.46408H16.0659C16.1369 7.46408 16.205 7.49076 16.2552 7.53821C16.3055 7.58567 16.3337 7.65001 16.3337 7.71712C16.3337 7.78423 16.3055 7.84857 16.2552 7.89602C16.205 7.94348 16.1369 7.97015 16.0659 7.97015Z" fill="#FFCA1C"/>
<path d="M5.01724 3.31934C4.97235 3.31935 4.92818 3.30867 4.88878 3.28833C4.84938 3.26799 4.816 3.23866 4.79176 3.20295L3.68526 1.56625C3.65087 1.50989 3.64079 1.44326 3.65709 1.38005C3.67338 1.31685 3.71477 1.26195 3.77274 1.22685C3.8307 1.19174 3.90076 1.1791 3.96834 1.19151C4.03592 1.20393 4.09588 1.24038 4.13571 1.29344L5.24214 2.93015C5.26794 2.96834 5.28241 3.01237 5.28405 3.05765C5.28568 3.10294 5.27447 3.14774 5.25149 3.18751C5.2285 3.22727 5.19463 3.26058 5.15342 3.28376C5.11222 3.30693 5.06519 3.31921 5.01724 3.31934Z" fill="#FFCA1C"/>
<path d="M1.5092 11.9934C1.45145 11.9932 1.39534 11.9755 1.34916 11.9427C1.30298 11.91 1.26925 11.864 1.25299 11.8116C1.23673 11.7593 1.23875 11.7034 1.25887 11.6523C1.27899 11.6011 1.31608 11.5574 1.36459 11.5278L3.09661 10.4812C3.12615 10.4614 3.15966 10.4475 3.19506 10.4403C3.23047 10.4331 3.26705 10.4328 3.30261 10.4393C3.33817 10.4459 3.37195 10.459 3.40192 10.4783C3.43188 10.4975 3.45742 10.5223 3.47697 10.5511C3.49651 10.58 3.5097 10.6122 3.51567 10.6459C3.52164 10.6797 3.52025 10.7142 3.51168 10.7475C3.50311 10.7807 3.48752 10.812 3.46579 10.8394C3.44406 10.8668 3.41669 10.8898 3.38531 10.9069L1.65329 11.9535C1.61028 11.9795 1.56027 11.9933 1.5092 11.9934Z" fill="#FFCA1C"/>
<path d="M12.4241 14.2605C12.3792 14.2606 12.335 14.25 12.2956 14.2296C12.2562 14.2093 12.2228 14.1799 12.1986 14.1442L11.091 12.5071C11.0566 12.4507 11.0466 12.384 11.0628 12.3208C11.0791 12.2575 11.1205 12.2027 11.1785 12.1676C11.2365 12.1324 11.3065 12.1198 11.3741 12.1322C11.4417 12.1446 11.5016 12.1812 11.5415 12.2343L12.649 13.8713C12.6872 13.9278 12.7001 13.9963 12.685 14.0617C12.6698 14.1272 12.6278 14.1844 12.5681 14.2206C12.5245 14.2453 12.4749 14.2589 12.4241 14.2605Z" fill="#FFCA1C"/>
<path d="M13.0881 4.99942C13.0303 4.99928 12.9742 4.98153 12.928 4.94877C12.8819 4.91601 12.8481 4.87004 12.8319 4.81768C12.8156 4.76532 12.8177 4.70944 12.8378 4.6583C12.858 4.60715 12.895 4.56348 12.9435 4.53388L14.6755 3.48738C14.705 3.46758 14.7385 3.45358 14.774 3.44637C14.8094 3.43915 14.8459 3.43885 14.8815 3.44538C14.9171 3.45191 14.9508 3.46519 14.9808 3.48442C15.0108 3.50364 15.0363 3.52837 15.0559 3.55719C15.0754 3.58601 15.0886 3.61832 15.0946 3.65208C15.1005 3.68584 15.0991 3.72039 15.0906 3.75364C15.082 3.7869 15.0664 3.81818 15.0447 3.84556C15.023 3.87295 14.9956 3.8958 14.9642 3.9129L13.2322 4.95952C13.1892 4.98555 13.1392 4.99935 13.0881 4.99942Z" fill="#FFCA1C"/>
<path d="M3.05701 5.29295C3.01164 5.29287 2.96708 5.28191 2.92743 5.26108L1.12951 4.31923C1.06737 4.28669 1.02148 4.23217 1.0019 4.16764C0.98231 4.1031 0.990659 4.03386 1.0251 3.97514C1.05955 3.91642 1.11724 3.87306 1.18554 3.85455C1.25384 3.83605 1.32711 3.84387 1.38925 3.87642L3.18717 4.81826C3.23929 4.84538 3.28038 4.88809 3.30393 4.93972C3.32749 4.99135 3.33213 5.049 3.3172 5.10342C3.30228 5.15785 3.26861 5.20599 3.22149 5.24032C3.17437 5.27465 3.1165 5.29316 3.05701 5.29295Z" fill="#FFCA1C"/>
<path d="M4.33702 14.4984C4.29037 14.4984 4.24453 14.4869 4.20404 14.465C4.16355 14.4431 4.12982 14.4117 4.10617 14.3737C4.08253 14.3357 4.0698 14.2925 4.06923 14.2484C4.06867 14.2043 4.0803 14.1609 4.10297 14.1224L5.09859 12.4235C5.13303 12.3648 5.19072 12.3215 5.25902 12.3029C5.32732 12.2844 5.40066 12.2923 5.4628 12.3248C5.52494 12.3574 5.57083 12.4119 5.59041 12.4764C5.61 12.541 5.60165 12.6102 5.56721 12.6689L4.57159 14.3679C4.54905 14.408 4.51519 14.4413 4.47378 14.4644C4.43238 14.4874 4.38506 14.4992 4.33702 14.4984Z" fill="#FFCA1C"/>
<path d="M15.0751 11.5885C15.0297 11.5885 14.9851 11.5775 14.9454 11.5567L13.1465 10.6149C13.0843 10.5824 13.0384 10.5278 13.0189 10.4632C12.9993 10.3987 13.0076 10.3294 13.0421 10.2707C13.0765 10.212 13.1342 10.1686 13.2025 10.1501C13.2708 10.1316 13.3441 10.1396 13.4062 10.1721L15.2052 11.1139C15.236 11.13 15.2631 11.1517 15.285 11.1777C15.3069 11.2037 15.3232 11.2335 15.3329 11.2655C15.3426 11.2974 15.3455 11.3309 15.3416 11.3639C15.3376 11.397 15.3267 11.429 15.3097 11.4581C15.2871 11.4982 15.2533 11.5315 15.2119 11.5546C15.1704 11.5776 15.1231 11.5894 15.0751 11.5885Z" fill="#FFCA1C"/>
<path d="M10.9994 3.14221C10.9528 3.14221 10.907 3.13073 10.8665 3.10885C10.826 3.08697 10.7923 3.05541 10.7686 3.01742C10.745 2.97943 10.7323 2.93633 10.7317 2.89226C10.7311 2.84819 10.7428 2.80476 10.7654 2.76624L11.761 1.06739C11.7781 1.03831 11.8011 1.01259 11.8286 0.991897C11.8561 0.971202 11.8877 0.95584 11.9215 0.946676C11.9553 0.937513 11.9907 0.934759 12.0256 0.938522C12.0606 0.942284 12.0944 0.952552 12.1252 0.968669C12.156 0.984785 12.1831 1.00641 12.205 1.03242C12.2269 1.05844 12.2431 1.08831 12.2528 1.12027C12.2625 1.15222 12.2655 1.18571 12.2615 1.21874C12.2575 1.25177 12.2467 1.28369 12.2296 1.31276L11.2341 3.01162C11.2115 3.05172 11.1777 3.08519 11.1363 3.10823C11.0949 3.13128 11.0475 3.14303 10.9994 3.14221Z" fill="#FFCA1C"/>
<path d="M8.16631 10.9383C10.049 10.9383 11.5752 9.49612 11.5752 7.71712C11.5752 5.93813 10.049 4.49597 8.16631 4.49597C6.28365 4.49597 4.75745 5.93813 4.75745 7.71712C4.75745 9.49612 6.28365 10.9383 8.16631 10.9383Z" fill="#FFE17E"/>
<path d="M39.2266 14.7266H42.0859V32H39.2266V14.7266ZM49.3047 24.2188H43.0469V22.2969H49.3047V24.2188ZM43.0469 29.8672H50.0312V32H43.0469V29.8672ZM50.0312 14.7266V16.8594H43.0469V14.7266H50.0312ZM62.5234 22.2031C62.2891 21.9219 61.9609 21.6641 61.5391 21.4297C61.1328 21.1797 60.5859 21.0312 59.8984 20.9844V18.7344C60.7578 18.7812 61.4922 18.9688 62.1016 19.2969C62.7266 19.6094 63.2891 20.0703 63.7891 20.6797L62.5234 22.2031ZM59.8984 29.7734C60.4609 29.7109 60.9375 29.5781 61.3281 29.375C61.7344 29.1562 62.1172 28.9062 62.4766 28.625L63.5312 30.1484C63.0469 30.7578 62.5234 31.2266 61.9609 31.5547C61.3984 31.8672 60.7109 32.0469 59.8984 32.0938V29.7734ZM53.3594 25.3906C53.3594 24.5 53.4844 23.6641 53.7344 22.8828C54 22.1016 54.3828 21.4141 54.8828 20.8203C55.3828 20.2266 55.9688 19.75 56.6406 19.3906C57.3281 19.0156 58.0938 18.7969 58.9375 18.7344V21.0078C58.1562 21.1797 57.5312 21.6641 57.0625 22.4609C56.5938 23.2422 56.3594 24.1953 56.3594 25.3203C56.3594 25.8984 56.4141 26.4453 56.5234 26.9609C56.6484 27.4609 56.8203 27.9062 57.0391 28.2969C57.2578 28.6875 57.5234 29.0156 57.8359 29.2812C58.1641 29.5469 58.5312 29.7109 58.9375 29.7734V32.0938C58.0781 32.0469 57.3047 31.8438 56.6172 31.4844C55.9297 31.1094 55.3438 30.625 54.8594 30.0312C54.375 29.4219 54 28.7188 53.7344 27.9219C53.4844 27.125 53.3594 26.2812 53.3594 25.3906ZM73.6562 18.7109C74.5156 18.7578 75.2969 18.9688 76 19.3438C76.7031 19.7031 77.2891 20.1875 77.7578 20.7969C78.2422 21.3906 78.6172 22.0859 78.8828 22.8828C79.1484 23.6797 79.2812 24.5312 79.2812 25.4375C79.2812 26.3438 79.1406 27.1953 78.8594 27.9922C78.5938 28.7734 78.2188 29.4609 77.7344 30.0547C77.25 30.6328 76.6562 31.1016 75.9531 31.4609C75.25 31.8203 74.4844 32.0312 73.6562 32.0938V29.8438C74.4375 29.6719 75.0703 29.1797 75.5547 28.3672C76.0547 27.5547 76.3047 26.5781 76.3047 25.4375C76.3047 24.8594 76.2422 24.3203 76.1172 23.8203C76.0078 23.3047 75.8359 22.8438 75.6016 22.4375C75.3672 22.0312 75.0859 21.6953 74.7578 21.4297C74.4297 21.1641 74.0625 20.9922 73.6562 20.9141V18.7109ZM67.1172 25.3906C67.1172 24.4844 67.25 23.6406 67.5156 22.8594C67.7812 22.0781 68.1562 21.3984 68.6406 20.8203C69.1406 20.2266 69.7344 19.75 70.4219 19.3906C71.1094 19.0312 71.8672 18.8125 72.6953 18.7344V20.9141C71.9141 21.0859 71.2891 21.5781 70.8203 22.3906C70.3516 23.2031 70.1172 24.1797 70.1172 25.3203C70.1172 25.8984 70.1719 26.4453 70.2812 26.9609C70.4062 27.4766 70.5781 27.9375 70.7969 28.3438C71.0156 28.75 71.2812 29.0859 71.5938 29.3516C71.9219 29.6172 72.2891 29.7812 72.6953 29.8438V32.0938C71.8359 32.0312 71.0625 31.8203 70.375 31.4609C69.6875 31.0859 69.1016 30.6016 68.6172 30.0078C68.1328 29.4141 67.7578 28.7188 67.4922 27.9219C67.2422 27.125 67.1172 26.2812 67.1172 25.3906ZM91.0469 17.3984C90.9688 17.3672 90.875 17.3125 90.7656 17.2344C90.6562 17.1562 90.5 17.0859 90.2969 17.0234C90.0938 16.9453 89.8359 16.8828 89.5234 16.8359C89.2109 16.7891 88.8125 16.7812 88.3281 16.8125V14.4453C89.0156 14.4609 89.7109 14.5391 90.4141 14.6797C91.1328 14.8047 91.7109 15.0078 92.1484 15.2891C92.0547 15.4922 91.9453 15.7188 91.8203 15.9688C91.6953 16.2031 91.5781 16.4297 91.4688 16.6484C91.3594 16.8516 91.2656 17.0234 91.1875 17.1641C91.1094 17.3047 91.0625 17.3828 91.0469 17.3984ZM82.9609 19.2734C82.9609 18.5859 83.0781 17.9688 83.3125 17.4219C83.5469 16.875 83.8594 16.3984 84.25 15.9922C84.6562 15.5703 85.125 15.2422 85.6562 15.0078C86.2031 14.7578 86.7734 14.5938 87.3672 14.5156V16.9766C86.8672 17.1484 86.4531 17.4531 86.125 17.8906C85.7969 18.3125 85.6328 18.7422 85.6328 19.1797C85.6328 19.7891 85.7969 20.2812 86.125 20.6562C86.4531 21.0312 86.8672 21.3594 87.3672 21.6406V24.3125C86.8516 24.0625 86.3359 23.7969 85.8203 23.5156C85.3047 23.2188 84.8359 22.875 84.4141 22.4844C83.9922 22.0938 83.6406 21.6406 83.3594 21.125C83.0938 20.6094 82.9609 19.9922 82.9609 19.2734ZM83.3359 28.8359C83.5547 28.9609 83.8281 29.0859 84.1562 29.2109C84.5 29.3203 84.8516 29.4297 85.2109 29.5391C85.5703 29.6328 85.9297 29.7109 86.2891 29.7734C86.6484 29.8359 86.9844 29.8672 87.2969 29.8672H87.3672V32.0938H87.3203C86.9453 32.0938 86.5547 32.0703 86.1484 32.0234C85.7578 31.9922 85.3594 31.9297 84.9531 31.8359C84.5469 31.7422 84.1562 31.6172 83.7812 31.4609C83.4219 31.2891 83.1094 31.0859 82.8438 30.8516L83.3359 28.8359ZM88.3281 22.1094C88.8438 22.3438 89.3672 22.5938 89.8984 22.8594C90.4453 23.125 90.9375 23.4531 91.375 23.8438C91.8125 24.2188 92.1719 24.6797 92.4531 25.2266C92.7344 25.7734 92.875 26.4531 92.875 27.2656C92.875 27.8281 92.7656 28.375 92.5469 28.9062C92.3438 29.4375 92.0469 29.9219 91.6562 30.3594C91.2812 30.7812 90.8125 31.1406 90.25 31.4375C89.6875 31.7344 89.0469 31.9297 88.3281 32.0234V29.7734C89.6094 29.4609 90.25 28.6094 90.25 27.2188C90.25 26.6719 90.0703 26.2188 89.7109 25.8594C89.3516 25.5 88.8906 25.1641 88.3281 24.8516V22.1094ZM98.4297 25.9766C98.4297 26.5234 98.4531 27.0391 98.5 27.5234C98.5469 27.9922 98.6484 28.4062 98.8047 28.7656C98.9609 29.125 99.1953 29.4141 99.5078 29.6328C99.8203 29.8516 100.234 29.9609 100.75 29.9609C100.953 29.9609 101.242 29.9297 101.617 29.8672C101.992 29.8047 102.352 29.7031 102.695 29.5625V31.2969C102.289 31.5156 101.844 31.7109 101.359 31.8828C100.891 32.0391 100.422 32.1172 99.9531 32.1172C99.5781 32.1172 99.2422 32.0781 98.9453 32C98.6484 31.9375 98.3672 31.8359 98.1016 31.6953C97.8516 31.5391 97.6094 31.3672 97.375 31.1797C97.1406 30.9922 96.9062 30.7812 96.6719 30.5469C96.4062 30.2812 96.1953 29.9766 96.0391 29.6328C95.8828 29.2734 95.7656 28.9062 95.6875 28.5312C95.625 28.1406 95.5859 27.75 95.5703 27.3594C95.5703 26.9688 95.5703 26.5859 95.5703 26.2109V18.7812H98.4297V25.9766ZM106.516 18.7812V32H103.961L103.656 30.6406V18.7812H106.516ZM113.031 18.7812L113.336 20.1172V32H110.5V18.7812H113.031ZM120.344 20.2344C120.609 20.5 120.812 20.8125 120.953 21.1719C121.109 21.5156 121.219 21.8828 121.281 22.2734C121.359 22.6484 121.406 23.0312 121.422 23.4219C121.438 23.8125 121.445 24.1953 121.445 24.5703V31.5312V32H118.586V24.8047C118.586 24.2734 118.562 23.7656 118.516 23.2812C118.469 22.7969 118.359 22.3672 118.188 21.9922C118.016 21.6172 117.781 21.3281 117.484 21.125C117.188 20.9062 116.773 20.7969 116.242 20.7969C116.023 20.7969 115.727 20.8359 115.352 20.9141C114.992 20.9766 114.641 21.0859 114.297 21.2422V19.4375C114.719 19.2188 115.172 19.0312 115.656 18.875C116.156 18.7188 116.641 18.6406 117.109 18.6406C117.812 18.6406 118.406 18.7891 118.891 19.0859C119.375 19.3672 119.859 19.75 120.344 20.2344Z" fill="#B2B2B2"/>
</svg>
